v 0.5 0.5 -0.5
v 0.5 0.5 0.5
v -0.5 0.5 0.5
v -0.5 0.5 -0.5
v 0.5 0.4375 -0.5
v 0.5 0.4375 0.5
v -0.5 0.4375 0.5
v -0.5 0.4375 -0.5
v 0.5 -0.5 -0.5
v 0.5 -0.5 0.5
v -0.5 -0.5 0.5
v -0.5 -0.5 -0.5
v 0.5 -0.5 -0.4375
v 0.5 -0.5 0.4375
v -0.5 -0.5 0.4375
v -0.5 -0.5 -0.4375
v 0.5 0.5 -0.4375
v 0.5 0.5 0.4375
v -0.5 0.5 0.4375
v -0.5 0.5 -0.4375
v 0.4375 -0.5 -0.5
v 0.4375 -0.5 0.5
v -0.4375 -0.5 0.5
v -0.4375 -0.5 -0.5
v 0.4375 0.5 -0.5
v 0.4375 0.5 0.5
v -0.4375 0.5 0.5
v -0.4375 0.5 -0.5
v 0.5 -0.4375 -0.5
v 0.5 -0.4375 0.5
v -0.5 -0.4375 0.5
v -0.5 -0.4375 -0.5
v -0.5 -0.5 0
v 0.5 -0.5 0
v -0.5 0.5 0
v 0.5 0.5 0
v 0.25 -0.5 0.433013
v -0.25 -0.5 -0.433013
v 0.25 0.5 0.433013
v -0.25 0.5 -0.433013
v 0.25 -0.5 -0.433013
v -0.25 -0.5 0.433013
v 0.25 0.5 -0.433013
v -0.25 0.5 0.433013

vn 0 1 0
vn 0 -1 0
vn 1 0 0
vn 0 0 1
vn -1 0 0
vn 0 0 -1
vn 0.866 0 -0.5
vn -0.866 0 -0.5

vt 0 0
vt 1 0
vt 1 1
vt 0 1
vt 0.9999 0.0001
vt 0.0001 0.0001
vt 0.0001 0.9999
vt 0.9999 0.9999

o Storebox

g Storebox_Sides
s 0
f 9/2/3 1/3/3 2/4/3 10/1/3
f 10/2/4 2/3/4 3/4/4 11/1/4
f 11/2/5 3/3/5 4/4/5 12/1/5
f 1/4/6 9/1/6 12/2/6 4/3/6
f 14/2/6 15/1/6 19/4/6 18/3/6
f 17/4/4 20/3/4 16/2/4 13/1/4
f 21/2/5 22/1/5 26/4/5 25/3/5
f 23/2/3 24/1/3 28/4/3 27/3/3

g Storebox_Bottom
f 9/4/2 10/1/2 11/2/2 12/3/2
f 29/4/1 32/3/1 31/2/1 30/1/1

g Storebox_Top
f 1/1/1 4/2/1 3/3/1 2/4/1
f 5/1/2 6/4/2 7/3/2 8/2/2

g Storebox_Inside
f 33/5/4 34/6/4 36/7/4 35/8/4
f 37/6/7 38/5/7 40/8/7 39/7/7
f 41/6/8 42/5/8 44/8/8 43/7/8

